<?xml version="1.0" standalone="no"?>
<!DOCTYPE svg PUBLIC "-//W3C//DTD SVG 20010904//EN"
 "http://www.w3.org/TR/2001/REC-SVG-20010904/DTD/svg10.dtd">
<svg version="1.0" xmlns="http://www.w3.org/2000/svg"
 width="2000.000000pt" height="2000.000000pt" viewBox="0 0 2000.000000 2000.000000"
 preserveAspectRatio="xMidYMid meet">
<metadata>
Created by potrace 1.16, written by Peter Selinger 2001-2019
</metadata>
<g transform="translate(0.000000,2000.000000) scale(0.100000,-0.100000)"
fill="#000000" stroke="none">
<path d="M11675 13156 c-5 -3 -27 -7 -47 -11 -45 -7 -49 -21 -8 -30 45 -10
142 -77 182 -126 81 -101 139 -251 160 -412 7 -59 18 -104 29 -118 l17 -23 7
37 c4 21 5 76 3 122 l-4 83 23 -9 c65 -24 152 1 178 52 72 138 -68 308 -333
404 -65 23 -182 41 -207 31z"/>
<path d="M11232 13115 c-249 -54 -376 -318 -359 -744 9 -216 64 -387 171 -529
84 -109 157 -142 323 -142 113 0 157 15 207 72 25 28 68 93 97 145 l52 94 -21
22 c-138 151 -82 470 92 518 44 12 44 20 10 125 -71 219 -210 366 -413 435
-63 22 -74 22 -159 4z"/>
<path d="M12662 12599 c-47 -24 -87 -75 -102 -129 -5 -19 -45 -433 -90 -920
-44 -487 -84 -897 -88 -912 -7 -26 -14 -17 -115 128 -147 210 -215 292 -305
370 -43 36 -91 79 -107 94 -51 46 -215 150 -310 195 -300 143 -586 175 -902
100 -343 -82 -693 -291 -939 -561 -106 -118 -228 -266 -272 -331 -19 -29 -36
-53 -37 -53 -2 0 -29 16 -61 35 -33 20 -90 46 -129 58 -69 22 -78 22 -715 22
-596 0 -650 -1 -705 -18 -150 -46 -292 -163 -358 -295 -62 -125 -69 -180 -65
-514 3 -289 4 -294 30 -368 33 -90 103 -196 167 -251 56 -48 165 -103 246
-124 35 -9 104 -15 171 -15 l111 0 6 -322 c7 -433 39 -724 113 -1037 28 -120
69 -262 88 -306 8 -16 24 -60 37 -97 l23 -67 -26 -20 c-35 -28 -68 -98 -68
-144 l0 -37 1536 0 1537 0 -6 49 c-7 62 -44 121 -94 152 l-38 24 -1127 3
-1128 2 -14 29 c-72 139 -154 464 -205 816 -26 176 -61 655 -61 826 l0 129
108 0 c60 0 111 -2 113 -5 3 -2 -5 -60 -17 -127 -45 -243 -111 -724 -117 -853
l-2 -30 150 -32 c664 -143 1377 -147 1967 -11 101 23 83 -8 143 243 49 203
135 514 200 720 29 94 65 211 80 260 15 50 33 104 40 120 27 61 45 108 45 120
0 7 14 50 31 94 l31 81 419 0 420 0 92 -66 c50 -36 105 -73 122 -81 16 -9 32
-19 35 -24 10 -15 114 -56 171 -68 166 -35 552 63 754 190 l70 44 129 5 129 5
-69 38 c-37 21 -73 36 -80 33 -8 -3 -7 5 3 25 23 46 -3 104 -78 173 -132 123
-250 148 -461 100 -154 -35 -235 -37 -275 -8 -30 22 -158 167 -174 196 -9 17
16 18 593 18 l603 1 55 49 55 50 -701 0 -702 0 -37 54 -37 55 91 987 c51 543
96 995 102 1005 27 52 -73 49 1646 49 l1593 0 12 -25 c9 -20 -7 -217 -76 -963
-47 -515 -86 -945 -86 -954 0 -15 9 -18 48 -18 47 0 48 1 50 33 1 17 41 451
88 962 96 1043 95 973 18 1031 l-37 29 -1606 3 -1606 2 -43 -21z m-781 -2559
c130 -130 203 -210 192 -210 -10 0 -148 -13 -308 -29 -159 -17 -291 -29 -292
-27 -5 5 188 476 195 476 2 0 98 -94 213 -210z"/>
<path d="M14005 12426 c-127 -25 -248 -88 -325 -172 -129 -140 -193 -448 -207
-997 l-6 -258 179 5 c98 2 214 5 256 5 l76 1 11 50 c6 28 11 75 11 105 l0 54
-42 11 c-74 19 -96 31 -137 75 -77 83 -96 155 -95 345 1 126 18 257 46 351 12
43 40 59 103 59 32 0 45 4 45 14 0 8 -10 17 -22 19 -13 2 3 5 34 6 53 1 59 3
73 31 20 38 26 38 15 0 -10 -34 -8 -36 45 -45 62 -10 72 -15 56 -24 -20 -13
-4 -31 28 -31 16 0 45 -11 65 -25 31 -21 38 -22 43 -9 3 8 -2 21 -13 29 -25
19 -16 18 37 0 43 -16 58 -10 59 21 0 7 6 26 14 44 l13 32 12 -77 c11 -75 64
-251 80 -268 4 -4 21 -1 37 8 71 37 134 0 134 -79 0 -56 -32 -98 -95 -122 -42
-16 -48 -22 -85 -101 -29 -63 -55 -100 -99 -143 -68 -66 -81 -100 -80 -205 0
-89 24 -156 59 -166 82 -23 183 -42 240 -45 36 -1 92 -12 124 -23 33 -12 61
-19 64 -17 10 11 42 276 54 448 21 319 -13 572 -102 757 -56 116 -152 212
-270 269 -140 68 -303 93 -435 68z"/>
<path d="M11985 12053 c-4 -13 10 -34 57 -78 77 -73 98 -102 98 -135 0 -32
-26 -71 -44 -64 -7 3 -24 0 -38 -5 -20 -7 -25 -15 -21 -30 9 -35 56 -27 103
17 51 49 53 87 9 157 -30 47 -134 155 -149 155 -4 0 -11 -8 -15 -17z"/>
<path d="M11623 11690 c3 -12 -7 -33 -27 -57 -66 -80 -68 -74 20 -69 74 4 168
28 179 46 6 9 -56 47 -129 79 -47 20 -48 20 -43 1z"/>
<path d="M14007 10354 c3 -9 -7 -28 -27 -49 l-32 -34 7 -77 7 -78 70 -76 c72
-77 168 -212 168 -235 0 -17 -73 -48 -201 -84 l-104 -30 498 0 498 -1 -3 53
-3 52 -170 59 c-93 33 -172 61 -174 63 -5 4 -40 284 -41 326 l0 27 385 0 385
0 0 50 0 50 -635 0 c-572 0 -634 -2 -628 -16z"/>
<path d="M15087 10123 c-4 -3 -7 -13 -7 -22 0 -14 37 -16 365 -13 l364 3 17
-57 c19 -66 16 -244 -4 -281 l-13 -23 -364 0 c-358 0 -365 0 -365 -20 0 -20 7
-20 564 -20 l563 0 17 58 c24 87 30 171 17 248 -21 127 -13 120 -159 127 -167
9 -987 9 -995 0z"/>
<path d="M16534 10109 c40 -125 44 -268 12 -372 l-14 -48 140 3 141 3 14 40
c32 88 25 322 -10 368 -9 12 -44 17 -151 23 l-139 7 7 -24z"/>
<path d="M12010 8823 l0 -428 160 3 159 3 3 102 c2 56 5 247 6 425 l2 322
-165 0 -165 0 0 -427z"/>
<path d="M14196 9219 c-3 -17 -6 -49 -6 -70 l0 -39 165 0 165 0 1 48 c1 26 3
57 4 70 l2 22 -162 0 -162 0 -7 -31z"/>
<path d="M16226 9242 c-3 -5 -2 -24 1 -43 3 -19 5 -44 5 -56 0 -22 3 -22 164
-25 140 -3 164 -1 164 12 0 8 -3 39 -6 68 l-7 52 -158 0 c-87 0 -160 -4 -163
-8z"/>
<path d="M9450 6270 c0 -622 -2 -598 57 -662 l25 -26 -3 -636 c-3 -403 -8
-639 -14 -644 -6 -5 -273 -35 -594 -66 -414 -41 -593 -62 -615 -73 -88 -44
-128 -114 -134 -234 l-4 -86 -35 -18 c-77 -42 -136 -152 -136 -255 0 -119 69
-223 181 -272 149 -66 343 20 396 175 31 92 15 202 -39 273 -14 18 -25 35 -25
38 0 3 494 6 1098 6 l1098 0 -12 -82 c-7 -46 -16 -122 -20 -169 -9 -116 -5
-119 163 -119 l122 0 42 -45 c118 -126 304 -132 424 -15 62 61 86 59 420 -35
66 -19 168 -44 228 -56 102 -21 109 -22 142 -6 41 20 60 54 51 91 -5 20 -20
33 -59 50 -114 50 -232 141 -319 246 -21 24 -38 41 -38 37 0 -4 -10 -3 -22 4
-23 12 -276 85 -328 94 -18 3 -38 1 -46 -5 -10 -9 -16 -7 -26 10 -7 12 -27 30
-44 40 -30 19 -31 23 -37 104 -9 127 -49 189 -148 230 -18 8 -131 24 -249 35
-118 12 -246 26 -285 32 -38 5 -204 23 -369 39 -164 16 -300 31 -303 33 -2 2
-3 294 -3 648 0 535 2 646 14 654 7 6 23 26 35 45 21 35 21 41 21 613 l0 577
-305 0 -305 0 0 -570z"/>
</g>
</svg>
